<?xml version="1.0" encoding="UTF-8" standalone="no"?>
<svg id="svg2" xmlns:rdf="http://www.w3.org/1999/02/22-rdf-syntax-ns#" xmlns="http://www.w3.org/2000/svg" height="477.32pt" width="423.72pt" version="1.1" xmlns:cc="http://creativecommons.org/ns#" xmlns:dc="http://purl.org/dc/elements/1.1/" viewBox="0 0 423.72269 477.31805">
<path id="path4" d="m369.66 0.001469c-1.8822-0.015618-3.8028 0.093125-5.7609 0.33438-80.82 9.04-145.91 63.55-205.94 113.62-38.13 1.96-77.389 1.3503-114.06 13.57-12.72 4.04-26.261 13.24-26.091 28.05-0.22 31.75 18.211 61.599 42.741 80.719-3.19 8.95-12.33 16.62-9.0703 26.85 2.73 6.68 15.69 13.49 8.1797 20.97-8.02 10.27-15.569 27.48-3.8188 37.83 6.71 6.94 13.449 14.061 21.589 19.361 23.95 16.31 50.68 27.999 74.33 44.809 3.22 2.95 7.7103 3.8897 11.87 2.5797 8.1-0.84 11.01-17.259 18.73-7.6594 15.86 14.91 39.52 15.141 53.3-2.5094 24.24 17.16 52.96 34.66 84.02 31.03 18.7-3.94 25.46-24.95 27.67-41.55 4.11-37.06-3.4297-74.18-10.68-110.37 21.6-31.43 44.86-61.76 65.32-94 20.6-31.9 25.47-72.131 19.15-109.04-3.78-26.227-23.25-54.364-51.48-54.599zm-3.1 8.2875c12.593-0.01641 24.913 6.3534 32.639 16.267 15.87 21.16 17.029 49.5 14.709 74.83-15.33-36.33-40.909-69.599-77.569-86.159 8.18-1.92 16.439-3.7212 24.819-4.5312 1.7975-0.27125 3.6026-0.40391 5.4016-0.40625zm-43.077 10.745c12.721 0.32812 25.283 10.624 34.966 18.281 22.95 16.26 38.201 41.91 48.091 67.82 10.84 14.37-1.5303 32.549-7.3703 46.659-36.85 56.64-77.121 111-119.64 163.41-53.02-48.55-125.91-74.251-168.69-133.94 23.19-28.18 47.059-56.17 74.969-79.82 40.49-28.07 77.82-61.94 125-78.95 4.175-2.5725 8.4345-3.5703 12.675-3.4609zm-47.444 57.38c-2.9797-0.03512-5.9362 0.05625-8.85 0.27188-51.61 4.56-87.191 65.2-72.541 113.37 12.18 37.24 57.419 61.8 94.709 46.9 19.73-10.04 38.02-23.84 51-41.97 14.94-23.55 17.701-54.21 10.241-80.67-14.82-25.424-45.76-37.557-74.56-37.896zm-4.2297 8.2187c27.235-0.32703 58.955 9.6747 72.169 35.163 5.5 27 2.0509 58.391-17.439 79.381-11.94 13.04-26.891 23.499-42.791 31.169-40.78 13.73-88.77-23.779-84.23-66.969 2.88-36.78 30.39-76.141 69.67-78.681 0.86844-0.03188 1.7418-0.05195 2.6203-0.0625zm-9.7953 14.153c-4.9699 0.0294-10.211 2.04-14.486 4.3406-24.04 13.59-41.8 40.859-41.95 68.739-1.5 10.03 8.07 18.01 17.75 15.65 8.07-1.87 4.6397-13.009 6.8297-18.739 0.56-14.14 10.3-25.831 22.02-32.791 1.8-1.28 3.68-2.43 5.55-3.6 10.27-5 25.921-17.55 14.811-29.28-2.9575-3.1675-6.6595-4.3432-10.525-4.3203zm0.40469 4.8594c14.07 0.49 8.5397 17.66-0.97031 20.55-20.56 9.62-39.59 28.121-36.87 52.761 0.13 12.32-17.96 3.0703-14.53-6.1297 2.6-28.99 22.28-61.031 52.37-67.181zm-115.66 19.51c1.28 0.06 2.5606 0.22 3.8406 0.4-24.02 23.7-45.201 50.059-65.791 76.739-0.49 2.46-2.4797 3.8803-3.9797 5.6703-5.73 6.59-9.0697 16.47-15.28 21.95-17.38-9.69-27.42-28.8-35.12-46.55-4.59-13.34-8.7997-33.91 7.2203-41.23 33.52-16.92 72.609-15.1 109.11-16.98zm-39.28 62.92c19.79 26.01 45.51 46.54 72.22 64.98 26.34 17.79 55.26 32.79 78.8 54.22 5.96 4.07 13.26 8.8791 16.83 14.789-13.61 18.56-29.53 35.71-45.68 52.18-6.85 5.41-14.841 15.93-24.681 11.67-18.06-7.23-33.2-19.959-48.58-31.559-32.23-26.18-63.919-53.381-91.559-84.441-6.71-5.06-5.7706-13.559-1.2906-19.639 12.73-21.95 27.301-43.07 43.941-62.2zm133.47 4.5484c-1.4491 0.002-2.9931 0.28063-4.6094 0.89063-14.87 4.5 2.51 35.041 13 20.461 7.2275-7.8662 1.753-21.368-8.3906-21.352zm-0.72188 5.3156c6.9254-0.29983 9.7528 8.0778 5.3031 13.416-6.34 4.12-13.99-9.0297-7.5797-13.03 0.80063-0.22968 1.5602-0.35492 2.2766-0.38593zm-157.07 50.5c-13.71-0.0452-3.8312 25.433 8.4125 19.077 6.56-6.39 3.6-16.631-5.35-18.711-1.13-0.24687-2.1485-0.36262-3.0625-0.36563zm2.1594 5.65c3.739 0.31726 7.5884 4.8016 3.0141 6.9953-3.93 4.48-9.9697-3.9188-5.4797-6.4688 0.74625-0.45 1.6028-0.59977 2.4656-0.52656zm243.91 14.58c1.4708-0.16859 1.2609 4.4962 1.5859 6.0969 5.7 38.41 19.401 84.179-1.2094 119.39-1.41 4.32-6.0303 7.2209-10.32 8.1609-24.21 5.28-51.601-10.08-71.991-24.3-2.36-0.83-4.4897-2.43-5.6297-4.7 31.87-31.8 58.81-68.091 86.25-103.66 0.54562-0.65063 0.97465-0.94703 1.3141-0.98594zm-260.51 18.7c31.25 30.82 63.511 60.969 99.541 86.239 0.04 4.44-5.5994 12.08-10.459 8.5203-31.65-22.63-70.411-35.8-96.741-65.47-6.95-10.2 2.1294-20.899 7.6594-29.289zm70.198 2.2453c-4.0898-0.0769-8.6925 3.3847-11.738 5.3047-6.59 10.3 8.1191 23.779 17.539 15.409 6.16-6.46-2.3594-12.72-1.9594-19.27-1.1725-1-2.4789-1.4181-3.8422-1.4438zm-3.2375 5.6047c3.58 2.26 10.5 9.2497 3.1203 11.38-9.05 3.74-10.58-9.1397-3.1203-11.38zm53.658 41.494c-2.6419-0.0108-5.0994 0.83562-6.5781 2.975-1.63 8.28 3.9106 17.84 12.541 19.15 6.75-3.81 5.7894-12.54 3.4594-18.75-2.3231-1.9294-6.0251-3.3611-9.4219-3.375zm0.70312 5.3641c4.8415-0.12633 7.8181 5.0034 6.2781 9.8422-4.52 1.79-11.769-6.42-8.4594-9.45 0.76-0.24875 1.4896-0.37413 2.1812-0.39218zm-113.28 20.72c-1.754-0.0464-3.5291 0.0741-5.2953 0.36094-18.53 0.14-49.359 2.4603-52.159 25.72 0.54 2.83 3.4197 4.3694 5.1797 6.4594-8.99 18.15-21.06 35.611-23.85 56.111 0.17 8.83-2.8903 20.249 3.1297 27.589 10.54 1.5 21.151-3.6591 31.791-3.9891 17.68-3.31 36.171-10.901 45.841-27.011 3.99-2.96 10.699-0.0794 14.639-4.3094 21.39-17.77 17.281-51.731-0.0891-70.941-4.3794-6.4594-11.585-9.7895-19.186-9.9906zm-5.8125 8.2969c27.905-0.0826 41.092 45.275 22.858 64.484-5.17 7.87-14.13-8.4794-17.4 3.4406-12.86 25.07-42.95 28.93-67.88 31.88-1.13-26.22 10.699-51.06 24.159-72.82 3.2-5.03-1.3991-8.4994-4.8391-11.209 7.04-13.09 24.21-13.551 37.33-15.131 1.9862-0.43063 3.9115-0.63824 5.7719-0.64376zm-4.7375 11.42c-10.27 0.25812-19.896 8.7309-23.405 18.023-4.52 13.65 12.3 22.02 23.7 21.7 20.23 0.96 26.37-38.439 4.1297-39.309-1.4775-0.32-2.9578-0.45094-4.425-0.41406zm-3.1234 4.6906c4.2067-0.0509 6.8216 6.0116 11.389 2.0828 13.24 8.32 0.68969 35.381-15.52 26.961-16.12-1.8-11.01-26.09 2.2203-28.6 0.67625-0.30375 1.31-0.43648 1.9109-0.44375z"/>
</svg>
